# WaveFront *.obj file (generated by Autodesk ATF)

mtllib 937186f3-f015-402c-8dba-fb6f6bc3f873.mtl

g Body1

v 125.000000 1750.000000 250.000000
v 125.000000 250.000000 250.000000
v 75.000000 250.000000 250.000000
v 75.000000 1750.000000 250.000000
v 125.000000 1750.000000 1750.000000
v 75.000000 1750.000000 1750.000000
v 125.000000 250.000000 1750.000000
v 75.000000 250.000000 1750.000000
vt 0.000000 7.500000 0.000000
vt 150.000000 7.500000 0.000000
vt 0.000000 12.500000 0.000000
vt 150.000000 12.500000 0.000000
vt 0.000000 7.500000 0.000000
vt 150.000000 7.500000 0.000000
vt 0.000000 12.500000 0.000000
vt 150.000000 12.500000 0.000000
vt 0.000000 7.500000 0.000000
vt 150.000000 7.500000 0.000000
vt 0.000000 12.500000 0.000000
vt 150.000000 12.500000 0.000000
vt 0.000000 7.500000 0.000000
vt 150.000000 7.500000 0.000000
vt 0.000000 12.500000 0.000000
vt 150.000000 12.500000 0.000000
vt 25.000000 25.000000 0.000000
vt 175.000000 25.000000 0.000000
vt 25.000000 175.000000 0.000000
vt 175.000000 175.000000 0.000000
vt 175.000000 175.000000 0.000000
vt 25.000000 175.000000 0.000000
vt 175.000000 25.000000 0.000000
vt 25.000000 25.000000 0.000000
vn 0.000000 0.000000 -0.100000
vn 0.000000 0.000000 -0.100000
vn 0.000000 0.000000 -0.100000
vn 0.000000 0.000000 -0.100000
vn 0.000000 0.100000 0.000000
vn 0.000000 0.100000 0.000000
vn 0.000000 0.100000 0.000000
vn 0.000000 0.100000 0.000000
vn 0.000000 -0.000000 0.100000
vn 0.000000 -0.000000 0.100000
vn 0.000000 -0.000000 0.100000
vn 0.000000 -0.000000 0.100000
vn 0.000000 -0.100000 0.000000
vn 0.000000 -0.100000 0.000000
vn 0.000000 -0.100000 0.000000
vn 0.000000 -0.100000 0.000000
vn -0.100000 0.000000 0.000000
vn -0.100000 0.000000 0.000000
vn -0.100000 0.000000 0.000000
vn -0.100000 0.000000 0.000000
vn 0.100000 0.000000 0.000000
vn 0.100000 0.000000 0.000000
vn 0.100000 0.000000 0.000000
vn 0.100000 0.000000 0.000000
usemtl Steel_-_Satin
f 1/1/1 2/2/2 4/3/3
f 4/3/3 2/2/2 3/4/4
f 5/5/5 1/6/6 6/7/7
f 6/7/7 1/6/6 4/8/8
f 7/9/9 5/10/10 8/11/11
f 8/11/11 5/10/10 6/12/12
f 2/13/13 7/14/14 3/15/15
f 3/15/15 7/14/14 8/16/16
f 3/17/17 8/18/18 4/19/19
f 4/19/19 8/18/18 6/20/20
f 1/21/21 5/22/22 2/23/23
f 2/23/23 5/22/22 7/24/24

g Body2

v 75.000000 250.000000 250.000000
v 75.000000 1750.000000 250.000000
v 0.000000 1825.000000 175.000000
v 0.000000 175.000000 175.000000
v 0.000000 1825.000000 1825.000000
v 75.000000 1750.000000 1750.000000
v 0.000000 175.000000 1825.000000
v 75.000000 250.000000 1750.000000
v 125.000000 1750.000000 250.000000
v 125.000000 1750.000000 1750.000000
v 125.000000 250.000000 250.000000
v 0.000000 3825.000000 1825.000000
v 0.000000 2175.000000 1825.000000
v 0.000000 2175.000000 175.000000
v 0.000000 3825.000000 175.000000
v 0.000000 0.000000 0.000000
v 0.000000 0.000000 2000.000000
v 0.000000 4000.000000 2000.000000
v 0.000000 4000.000000 0.000000
v 75.000000 3750.000000 1750.000000
v 75.000000 2250.000000 1750.000000
v 75.000000 3750.000000 250.000000
v 75.000000 2250.000000 250.000000
v 125.000000 2250.000000 1750.000000
v 125.000000 2250.000000 250.000000
v 125.000000 3750.000000 1750.000000
v 200.000000 175.000000 175.000000
v 200.000000 1825.000000 175.000000
v 200.000000 1825.000000 1825.000000
v 125.000000 250.000000 1750.000000
v 200.000000 175.000000 1825.000000
v 200.000000 3825.000000 175.000000
v 200.000000 2175.000000 175.000000
v 200.000000 2175.000000 1825.000000
v 200.000000 3825.000000 1825.000000
v 200.000000 0.000000 2000.000000
v 200.000000 0.000000 0.000000
v 200.000000 4000.000000 0.000000
v 200.000000 4000.000000 2000.000000
v 125.000000 3750.000000 250.000000
vt 5.303301 -62.500000 0.000000
vt 5.303301 87.500000 0.000000
vt -5.303301 -70.000000 0.000000
vt -5.303301 95.000000 0.000000
vt 95.000000 5.303301 0.000000
vt -70.000000 5.303301 0.000000
vt 87.500000 -5.303301 0.000000
vt -62.500000 -5.303301 0.000000
vt 5.303301 170.000000 0.000000
vt -5.303301 162.500000 0.000000
vt 5.303301 5.000000 0.000000
vt -5.303301 12.500000 0.000000
vt 5.000000 -5.303301 0.000000
vt 170.000000 -5.303301 0.000000
vt 12.500000 5.303301 0.000000
vt 162.500000 5.303301 0.000000
vt -0.000000 12.500000 0.000000
vt -150.000000 12.500000 0.000000
vt -0.000000 7.500000 0.000000
vt -150.000000 7.500000 0.000000
vt -0.000000 12.500000 0.000000
vt -150.000000 12.500000 0.000000
vt -0.000000 7.500000 0.000000
vt -150.000000 7.500000 0.000000
vt 182.500000 217.500000 0.000000
vt 200.000000 400.000000 0.000000
vt 182.500000 382.500000 0.000000
vt 0.000000 400.000000 0.000000
vt 17.500000 382.500000 0.000000
vt 17.500000 217.500000 0.000000
vt 0.000000 0.000000 0.000000
vt 17.500000 182.500000 0.000000
vt 17.500000 17.500000 0.000000
vt 200.000000 0.000000 0.000000
vt 182.500000 17.500000 0.000000
vt 182.500000 182.500000 0.000000
vt 5.303301 270.000000 0.000000
vt -5.303301 262.500000 0.000000
vt 5.303301 105.000000 0.000000
vt -5.303301 112.500000 0.000000
vt 95.000000 5.303301 0.000000
vt -70.000000 5.303301 0.000000
vt 87.500000 -5.303301 0.000000
vt -62.500000 -5.303301 0.000000
vt 5.303301 37.500000 0.000000
vt 5.303301 187.500000 0.000000
vt -5.303301 30.000000 0.000000
vt -5.303301 195.000000 0.000000
vt 5.000000 -5.303301 0.000000
vt 170.000000 -5.303301 0.000000
vt 12.500000 5.303301 0.000000
vt 162.500000 5.303301 0.000000
vt -0.000000 12.500000 0.000000
vt -150.000000 12.500000 0.000000
vt -0.000000 7.500000 0.000000
vt -150.000000 7.500000 0.000000
vt -0.000000 12.500000 0.000000
vt -150.000000 12.500000 0.000000
vt -0.000000 7.500000 0.000000
vt -150.000000 7.500000 0.000000
vt 5.303301 95.000000 0.000000
vt -5.303301 87.500000 0.000000
vt 5.303301 -70.000000 0.000000
vt -5.303301 -62.500000 0.000000
vt 170.000000 5.303301 0.000000
vt 5.000000 5.303301 0.000000
vt 162.500000 -5.303301 0.000000
vt 12.500000 -5.303301 0.000000
vt 5.303301 12.500000 0.000000
vt 5.303301 162.500000 0.000000
vt -5.303301 5.000000 0.000000
vt -5.303301 170.000000 0.000000
vt -70.000000 -5.303301 0.000000
vt 95.000000 -5.303301 0.000000
vt -62.500000 5.303301 0.000000
vt 87.500000 5.303301 0.000000
vt -0.000000 12.500000 0.000000
vt -150.000000 12.500000 0.000000
vt -0.000000 7.500000 0.000000
vt -150.000000 7.500000 0.000000
vt 182.500000 217.500000 0.000000
vt 200.000000 400.000000 0.000000
vt 182.500000 382.500000 0.000000
vt -0.000000 400.000000 0.000000
vt 17.500000 382.500000 0.000000
vt 17.500000 217.500000 0.000000
vt -0.000000 0.000000 0.000000
vt 17.500000 182.500000 0.000000
vt 17.500000 17.500000 0.000000
vt 200.000000 0.000000 0.000000
vt 182.500000 17.500000 0.000000
vt 182.500000 182.500000 0.000000
vt -5.303301 270.000000 0.000000
vt -5.303301 105.000000 0.000000
vt 5.303301 262.500000 0.000000
vt 5.303301 112.500000 0.000000
vt -5.303301 37.500000 0.000000
vt 5.303301 30.000000 0.000000
vt -5.303301 187.500000 0.000000
vt 5.303301 195.000000 0.000000
vt -70.000000 -5.303301 0.000000
vt 95.000000 -5.303301 0.000000
vt -62.500000 5.303301 0.000000
vt 87.500000 5.303301 0.000000
vt 170.000000 5.303301 0.000000
vt 5.000000 5.303301 0.000000
vt 162.500000 -5.303301 0.000000
vt 12.500000 -5.303301 0.000000
vt -0.000000 12.500000 0.000000
vt -150.000000 12.500000 0.000000
vt -0.000000 7.500000 0.000000
vt -150.000000 7.500000 0.000000
vt -0.000000 12.500000 0.000000
vt -150.000000 12.500000 0.000000
vt -0.000000 7.500000 0.000000
vt -150.000000 7.500000 0.000000
vt -0.000000 12.500000 0.000000
vt -150.000000 12.500000 0.000000
vt -0.000000 7.500000 0.000000
vt -150.000000 7.500000 0.000000
vt -0.000000 0.000000 0.000000
vt 20.000000 0.000000 0.000000
vt -0.000000 400.000000 0.000000
vt 20.000000 400.000000 0.000000
vt 0.000000 0.000000 0.000000
vt 20.000000 0.000000 0.000000
vt 0.000000 400.000000 0.000000
vt 20.000000 400.000000 0.000000
vt 100.000000 10.000000 0.000000
vt -100.000000 10.000000 0.000000
vt 100.000000 -10.000000 0.000000
vt -100.000000 -10.000000 0.000000
vt -10.000000 -100.000000 0.000000
vt 10.000000 -100.000000 0.000000
vt -10.000000 100.000000 0.000000
vt 10.000000 100.000000 0.000000
vn -0.070711 0.000000 0.070711
vn -0.070711 0.000000 0.070711
vn -0.070711 0.000000 0.070711
vn -0.070711 0.000000 0.070711
vn -0.070711 -0.070711 0.000000
vn -0.070711 -0.070711 0.000000
vn -0.070711 -0.070711 0.000000
vn -0.070711 -0.070711 0.000000
vn -0.070711 0.000000 -0.070711
vn -0.070711 0.000000 -0.070711
vn -0.070711 0.000000 -0.070711
vn -0.070711 0.000000 -0.070711
vn -0.070711 0.070711 -0.000000
vn -0.070711 0.070711 -0.000000
vn -0.070711 0.070711 -0.000000
vn -0.070711 0.070711 -0.000000
vn 0.000000 -0.100000 0.000000
vn 0.000000 -0.100000 0.000000
vn 0.000000 -0.100000 0.000000
vn 0.000000 -0.100000 0.000000
vn 0.000000 0.000000 0.100000
vn 0.000000 0.000000 0.100000
vn 0.000000 0.000000 0.100000
vn 0.000000 0.000000 0.100000
vn -0.100000 0.000000 0.000000
vn -0.100000 0.000000 0.000000
vn -0.100000 0.000000 0.000000
vn -0.100000 0.000000 0.000000
vn -0.100000 0.000000 0.000000
vn -0.100000 0.000000 0.000000
vn -0.100000 0.000000 0.000000
vn -0.100000 0.000000 0.000000
vn -0.100000 0.000000 0.000000
vn -0.100000 0.000000 0.000000
vn -0.100000 0.000000 0.000000
vn -0.100000 0.000000 0.000000
vn -0.070711 0.000000 -0.070711
vn -0.070711 0.000000 -0.070711
vn -0.070711 0.000000 -0.070711
vn -0.070711 0.000000 -0.070711
vn -0.070711 -0.070711 0.000000
vn -0.070711 -0.070711 0.000000
vn -0.070711 -0.070711 0.000000
vn -0.070711 -0.070711 0.000000
vn -0.070711 0.000000 0.070711
vn -0.070711 0.000000 0.070711
vn -0.070711 0.000000 0.070711
vn -0.070711 0.000000 0.070711
vn -0.070711 0.070711 0.000000
vn -0.070711 0.070711 0.000000
vn -0.070711 0.070711 0.000000
vn -0.070711 0.070711 0.000000
vn 0.000000 0.100000 0.000000
vn 0.000000 0.100000 0.000000
vn 0.000000 0.100000 0.000000
vn 0.000000 0.100000 0.000000
vn 0.000000 0.000000 -0.100000
vn 0.000000 0.000000 -0.100000
vn 0.000000 0.000000 -0.100000
vn 0.000000 0.000000 -0.100000
vn 0.070711 0.000000 0.070711
vn 0.070711 0.000000 0.070711
vn 0.070711 0.000000 0.070711
vn 0.070711 0.000000 0.070711
vn 0.070711 -0.070711 0.000000
vn 0.070711 -0.070711 0.000000
vn 0.070711 -0.070711 0.000000
vn 0.070711 -0.070711 0.000000
vn 0.070711 0.000000 -0.070711
vn 0.070711 0.000000 -0.070711
vn 0.070711 0.000000 -0.070711
vn 0.070711 0.000000 -0.070711
vn 0.070711 0.070711 0.000000
vn 0.070711 0.070711 0.000000
vn 0.070711 0.070711 0.000000
vn 0.070711 0.070711 0.000000
vn -0.000000 0.100000 -0.000000
vn -0.000000 0.100000 -0.000000
vn -0.000000 0.100000 -0.000000
vn -0.000000 0.100000 -0.000000
vn 0.100000 0.000000 0.000000
vn 0.100000 0.000000 0.000000
vn 0.100000 0.000000 0.000000
vn 0.100000 0.000000 0.000000
vn 0.100000 0.000000 0.000000
vn 0.100000 0.000000 0.000000
vn 0.100000 0.000000 0.000000
vn 0.100000 0.000000 0.000000
vn 0.100000 0.000000 0.000000
vn 0.100000 0.000000 0.000000
vn 0.100000 0.000000 0.000000
vn 0.100000 0.000000 0.000000
vn 0.070711 0.000000 -0.070711
vn 0.070711 0.000000 -0.070711
vn 0.070711 0.000000 -0.070711
vn 0.070711 0.000000 -0.070711
vn 0.070711 0.000000 0.070711
vn 0.070711 0.000000 0.070711
vn 0.070711 0.000000 0.070711
vn 0.070711 0.000000 0.070711
vn 0.070711 0.070711 0.000000
vn 0.070711 0.070711 0.000000
vn 0.070711 0.070711 0.000000
vn 0.070711 0.070711 0.000000
vn 0.070711 -0.070711 0.000000
vn 0.070711 -0.070711 0.000000
vn 0.070711 -0.070711 0.000000
vn 0.070711 -0.070711 0.000000
vn 0.000000 0.000000 0.100000
vn 0.000000 0.000000 0.100000
vn 0.000000 0.000000 0.100000
vn 0.000000 0.000000 0.100000
vn -0.000000 0.000000 -0.100000
vn -0.000000 0.000000 -0.100000
vn -0.000000 0.000000 -0.100000
vn -0.000000 0.000000 -0.100000
vn 0.000000 -0.100000 0.000000
vn 0.000000 -0.100000 0.000000
vn 0.000000 -0.100000 0.000000
vn 0.000000 -0.100000 0.000000
vn 0.000000 0.000000 -0.100000
vn 0.000000 0.000000 -0.100000
vn 0.000000 0.000000 -0.100000
vn 0.000000 0.000000 -0.100000
vn 0.000000 -0.000000 0.100000
vn 0.000000 -0.000000 0.100000
vn 0.000000 -0.000000 0.100000
vn 0.000000 -0.000000 0.100000
vn 0.000000 0.100000 0.000000
vn 0.000000 0.100000 0.000000
vn 0.000000 0.100000 0.000000
vn 0.000000 0.100000 0.000000
vn 0.000000 -0.100000 0.000000
vn 0.000000 -0.100000 0.000000
vn 0.000000 -0.100000 0.000000
vn 0.000000 -0.100000 0.000000
f 9/25/25 10/26/26 12/27/27
f 12/27/27 10/26/26 11/28/28
f 13/29/29 11/30/30 14/31/31
f 14/31/31 11/30/30 10/32/32
f 13/33/33 14/34/34 15/35/35
f 15/35/35 14/34/34 16/36/36
f 12/37/37 15/38/38 9/39/39
f 9/39/39 15/38/38 16/40/40
f 14/41/41 10/42/42 18/43/43
f 18/43/43 10/42/42 17/44/44
f 10/45/45 9/46/46 17/47/47
f 17/47/47 9/46/46 19/48/48
f 21/49/49 26/50/50 20/51/51
f 20/51/51 26/50/50 27/52/52
f 20/51/51 27/52/52 23/53/53
f 23/53/53 27/52/52 22/54/54
f 22/54/54 27/52/52 24/55/55
f 22/54/54 24/55/55 11/56/56
f 11/56/56 24/55/55 12/57/57
f 12/57/57 24/55/55 25/58/58
f 12/57/57 25/58/58 15/59/59
f 15/59/59 25/58/58 13/60/60
f 13/60/60 25/58/58 21/49/49
f 13/60/60 21/49/49 22/54/54
f 25/58/58 26/50/50 21/49/49
f 11/56/56 13/60/60 22/54/54
f 20/61/61 28/62/62 21/63/63
f 21/63/63 28/62/62 29/64/64
f 20/65/65 23/66/66 28/67/67
f 28/67/67 23/66/66 30/68/68
f 31/69/69 30/70/70 22/71/71
f 22/71/71 30/70/70 23/72/72
f 22/73/73 21/74/74 31/75/75
f 31/75/75 21/74/74 29/76/76
f 31/77/77 29/78/78 33/79/79
f 33/79/79 29/78/78 32/80/80
f 29/81/81 28/82/82 32/83/83
f 32/83/83 28/82/82 34/84/84
f 36/85/85 17/86/86 35/87/87
f 35/87/87 17/86/86 19/88/88
f 36/89/89 37/90/90 17/91/91
f 17/91/91 37/90/90 18/92/92
f 38/93/93 18/94/94 39/95/95
f 39/95/95 18/94/94 37/96/96
f 39/97/97 35/98/98 38/99/99
f 38/99/99 35/98/98 19/100/100
f 9/101/101 16/102/102 19/103/103
f 19/103/103 16/102/102 38/104/104
f 41/105/105 46/106/106 40/107/107
f 40/107/107 46/106/106 47/108/108
f 40/107/107 47/108/108 43/109/109
f 43/109/109 47/108/108 42/110/110
f 42/110/110 47/108/108 44/111/111
f 42/110/110 44/111/111 37/112/112
f 37/112/112 44/111/111 39/113/113
f 39/113/113 44/111/111 45/114/114
f 39/113/113 45/114/114 35/115/115
f 35/115/115 45/114/114 36/116/116
f 36/116/116 45/114/114 41/105/105
f 36/116/116 41/105/105 42/110/110
f 45/114/114 46/106/106 41/105/105
f 37/112/112 36/116/116 42/110/110
f 43/117/117 42/118/118 34/119/119
f 34/119/119 42/118/118 32/120/120
f 33/121/121 41/122/122 48/123/123
f 48/123/123 41/122/122 40/124/124
f 42/125/125 41/126/126 32/127/127
f 32/127/127 41/126/126 33/128/128
f 40/129/129 43/130/130 48/131/131
f 48/131/131 43/130/130 34/132/132
f 30/133/133 31/134/134 48/135/135
f 48/135/135 31/134/134 33/136/136
f 16/137/137 14/138/138 38/139/139
f 38/139/139 14/138/138 18/140/140
f 28/141/141 30/142/142 34/143/143
f 34/143/143 30/142/142 48/144/144
f 45/145/145 24/146/146 46/147/147
f 46/147/147 24/146/146 27/148/148
f 25/149/149 44/150/150 26/151/151
f 26/151/151 44/150/150 47/152/152
f 47/153/153 46/154/154 26/155/155
f 26/155/155 46/154/154 27/156/156
f 44/157/157 25/158/158 45/159/159
f 45/159/159 25/158/158 24/160/160

g Body3

v 125.000000 2250.000000 1750.000000
v 125.000000 2250.000000 250.000000
v 125.000000 3750.000000 250.000000
v 125.000000 3750.000000 1750.000000
v 75.000000 2250.000000 250.000000
v 75.000000 2250.000000 1750.000000
v 75.000000 3750.000000 1750.000000
v 75.000000 3750.000000 250.000000
vt 25.000000 225.000000 0.000000
vt 175.000000 225.000000 0.000000
vt 25.000000 375.000000 0.000000
vt 175.000000 375.000000 0.000000
vt 25.000000 225.000000 0.000000
vt 175.000000 225.000000 0.000000
vt 25.000000 375.000000 0.000000
vt 175.000000 375.000000 0.000000
vt 0.000000 7.500000 0.000000
vt 150.000000 7.500000 0.000000
vt 0.000000 12.500000 0.000000
vt 150.000000 12.500000 0.000000
vt 0.000000 7.500000 0.000000
vt 150.000000 7.500000 0.000000
vt 0.000000 12.500000 0.000000
vt 150.000000 12.500000 0.000000
vt 0.000000 7.500000 0.000000
vt 150.000000 7.500000 0.000000
vt 0.000000 12.500000 0.000000
vt 150.000000 12.500000 0.000000
vt 0.000000 7.500000 0.000000
vt 150.000000 7.500000 0.000000
vt 0.000000 12.500000 0.000000
vt 150.000000 12.500000 0.000000
vn 0.100000 0.000000 0.000000
vn 0.100000 0.000000 0.000000
vn 0.100000 0.000000 0.000000
vn 0.100000 0.000000 0.000000
vn -0.100000 0.000000 0.000000
vn -0.100000 0.000000 0.000000
vn -0.100000 0.000000 0.000000
vn -0.100000 0.000000 0.000000
vn 0.000000 0.000000 0.100000
vn 0.000000 0.000000 0.100000
vn 0.000000 0.000000 0.100000
vn 0.000000 0.000000 0.100000
vn 0.000000 0.100000 0.000000
vn 0.000000 0.100000 0.000000
vn 0.000000 0.100000 0.000000
vn 0.000000 0.100000 0.000000
vn 0.000000 0.000000 -0.100000
vn 0.000000 0.000000 -0.100000
vn 0.000000 0.000000 -0.100000
vn 0.000000 0.000000 -0.100000
vn 0.000000 -0.100000 0.000000
vn 0.000000 -0.100000 0.000000
vn 0.000000 -0.100000 0.000000
vn 0.000000 -0.100000 0.000000
f 49/161/161 50/162/162 52/163/163
f 52/163/163 50/162/162 51/164/164
f 53/165/165 54/166/166 56/167/167
f 56/167/167 54/166/166 55/168/168
f 49/169/169 52/170/170 54/171/171
f 54/171/171 52/170/170 55/172/172
f 52/173/173 51/174/174 55/175/175
f 55/175/175 51/174/174 56/176/176
f 51/177/177 50/178/178 56/179/179
f 56/179/179 50/178/178 53/180/180
f 50/181/181 49/182/182 53/183/183
f 53/183/183 49/182/182 54/184/184

# 56 vertices
# 184 texture params
# 184 normals
# 108 facets

# 3 groups
